<svg width="293" height="122" fill="none" id="svg1947142376_8760"><path d="M125.783 59.382h-1.947c-.404 0-.605-.202-.605-.606V32.167c0-.403.201-.605.605-.605h1.947c.404 0 .606.202.606.605v11.38c0 .26.144.389.433.389h10.73c.288 0 .432-.13.432-.39V32.168c0-.403.202-.605.606-.605h1.947c.404 0 .606.202.606.605v26.61c0 .403-.202.605-.606.605h-1.947c-.404 0-.606-.202-.606-.606V47.094c0-.26-.144-.39-.432-.39h-10.73c-.289 0-.433.13-.433.39v11.682c0 .404-.202.606-.606.606Zm36.052 0h-9.172c-1.99 0-3.562-.563-4.716-1.688-1.125-1.125-1.687-2.697-1.687-4.716V43.72c0-2.02.562-3.591 1.687-4.716 1.154-1.125 2.726-1.688 4.716-1.688h3.634c1.99 0 3.548.563 4.673 1.688s1.687 2.697 1.687 4.716v5.494c0 .433-.202.65-.605.65h-12.245c-.288 0-.432.13-.432.389v2.639c0 2.51 1.211 3.764 3.634 3.764h8.826c.404 0 .606.202.606.606v1.557c0 .375-.202.563-.606.563ZM149.807 47.57h9.346c.288 0 .432-.144.432-.432v-3.332c0-2.48-1.211-3.72-3.634-3.72h-2.942c-2.423 0-3.634 1.24-3.634 3.72v3.332c0 .288.144.432.432.432Zm19.868 11.812h-1.947c-.404 0-.606-.202-.606-.606V37.922c0-.404.202-.606.606-.606h1.947c.403 0 .605.202.605.606v1.73h.173c.289-.634.837-1.182 1.644-1.644.808-.461 1.76-.692 2.856-.692h1.687c.375 0 .563.202.563.606v1.6c0 .203-.043.361-.13.477-.087.086-.231.115-.433.086h-2.336c-1.298 0-2.293.39-2.985 1.168-.693.78-1.039 1.846-1.039 3.202v14.321c0 .404-.202.606-.605.606Zm13.12 0h-1.947c-.404 0-.606-.202-.606-.606V37.922c0-.404.202-.606.606-.606h1.947c.403 0 .605.202.605.606v1.687h.173c.808-1.528 2.337-2.293 4.587-2.293h1.6c2.539 0 4.298.98 5.279 2.942.461-.952 1.182-1.673 2.163-2.163a6.823 6.823 0 0 1 3.159-.779h1.514c1.961 0 3.49.563 4.586 1.688s1.644 2.697 1.644 4.716v15.056c0 .404-.202.606-.606.606h-1.947c-.403 0-.605-.202-.605-.606V43.85c0-2.51-1.212-3.764-3.635-3.764h-1.427c-1.298 0-2.308.375-3.029 1.125-.692.721-1.038 1.716-1.038 2.986v14.58c0 .404-.202.606-.606.606h-1.947c-.404 0-.606-.202-.606-.606V43.85c0-2.51-1.211-3.764-3.634-3.764h-1.601c-1.298 0-2.293.346-2.985 1.039-.693.692-1.039 1.672-1.039 2.942v14.71c0 .404-.202.606-.605.606Zm38.435 0h-2.25c-1.99 0-3.562-.563-4.716-1.688-1.125-1.125-1.688-2.697-1.688-4.716V43.72c0-2.02.563-3.591 1.688-4.716 1.154-1.125 2.726-1.688 4.716-1.688h9.389c.403 0 .605.202.605.606v20.854c0 .404-.202.606-.605.606h-1.947c-.404 0-.606-.202-.606-.606V57.09h-.173c-.721 1.529-2.192 2.293-4.413 2.293Zm4.586-6.75V40.475c0-.26-.144-.39-.433-.39h-6.057c-2.394 0-3.591 1.255-3.591 3.764v9c0 2.51 1.197 3.764 3.591 3.764h2.466c1.298 0 2.293-.346 2.985-1.039.693-.692 1.039-1.672 1.039-2.942Zm10.809 6.75h-1.947c-.404 0-.605-.202-.605-.606V37.922c0-.404.201-.606.605-.606h1.947c.404 0 .606.202.606.606v1.687h.173c.721-1.528 2.192-2.293 4.413-2.293h2.423c1.961 0 3.49.563 4.586 1.688s1.644 2.697 1.644 4.716v15.056c0 .404-.202.606-.605.606h-1.947c-.404 0-.606-.202-.606-.606V43.85c0-2.51-1.212-3.764-3.634-3.764h-2.423c-1.298 0-2.293.346-2.986 1.039-.692.692-1.038 1.672-1.038 2.942v14.71c0 .404-.202.606-.606.606Zm28.414 0h-3.721c-1.99 0-3.562-.563-4.716-1.688-1.125-1.125-1.687-2.697-1.687-4.716V43.72c0-2.02.562-3.591 1.687-4.716 1.154-1.125 2.726-1.688 4.716-1.688h3.721c1.99 0 3.548.563 4.673 1.688 1.153 1.125 1.73 2.697 1.73 4.716v9.258c0 2.02-.577 3.591-1.73 4.716-1.125 1.125-2.683 1.688-4.673 1.688Zm-3.375-2.77h3.029c2.423 0 3.634-1.24 3.634-3.72v-9.086c0-2.48-1.211-3.72-3.634-3.72h-3.029c-2.423 0-3.634 1.24-3.634 3.72v9.086c0 2.48 1.211 3.72 3.634 3.72Zm21.936 2.77h-7.701c-.404 0-.606-.202-.606-.606v-1.514c0-.375.202-.563.606-.563h7.268c2.25 0 3.375-.836 3.375-2.51v-.821c0-1.529-.736-2.582-2.207-3.159l-5.105-2.163c-1.471-.606-2.524-1.312-3.158-2.12-.635-.836-.952-1.932-.952-3.288 0-3.548 1.947-5.322 5.841-5.322h7.095c.404 0 .606.202.606.606v1.514c0 .375-.202.563-.606.563h-6.533c-1.038 0-1.831.216-2.379.649-.52.432-.779.937-.779 1.514v.736c0 1.21.822 2.134 2.466 2.768l5.105 2.294c1.5.576 2.51 1.34 3.029 2.293.548.952.822 2.264.822 3.937 0 3.461-2.062 5.192-6.187 5.192Zm-146.178 39h-13.586c-.404 0-.605-.202-.605-.606V71.168c0-.404.201-.606.605-.606h13.586c.404 0 .605.202.605.606v1.557c0 .404-.201.606-.605.606h-10.6c-.289 0-.433.13-.433.39v8.739c0 .26.144.39.433.39h9.259c.403 0 .605.201.605.605v1.558c0 .403-.202.605-.605.605h-9.259c-.289 0-.433.13-.433.39v9.215c0 .26.144.39.433.39h10.6c.404 0 .605.202.605.606v1.557c0 .404-.201.606-.605.606Zm7.851 0h-1.947c-.404 0-.606-.202-.606-.606V76.922c0-.404.202-.606.606-.606h1.947c.404 0 .606.202.606.606v1.687h.173c.721-1.528 2.192-2.293 4.413-2.293h2.423c1.961 0 3.49.563 4.586 1.688 1.096 1.124 1.644 2.697 1.644 4.716v15.056c0 .404-.202.606-.605.606h-1.947c-.404 0-.606-.202-.606-.606V82.85c0-2.51-1.212-3.764-3.634-3.764h-2.423c-1.298 0-2.293.346-2.986 1.039-.692.692-1.038 1.672-1.038 2.942v14.71c0 .404-.202.606-.606.606Zm33.865 0h-9.172c-1.99 0-3.562-.563-4.716-1.688-1.125-1.124-1.687-2.697-1.687-4.716V82.72c0-2.02.562-3.591 1.687-4.716 1.154-1.125 2.726-1.688 4.716-1.688h3.634c1.99 0 3.548.563 4.673 1.688 1.125 1.124 1.687 2.697 1.687 4.716v5.494c0 .433-.202.65-.605.65H167.11c-.288 0-.432.13-.432.389v2.639c0 2.51 1.211 3.764 3.634 3.764h8.826c.404 0 .606.202.606.606v1.557c0 .375-.202.563-.606.563ZM167.11 86.57h9.346c.288 0 .432-.144.432-.432v-3.332c0-2.48-1.211-3.72-3.634-3.72h-2.942c-2.423 0-3.634 1.24-3.634 3.72v3.332c0 .288.144.432.432.432Zm19.868 11.812h-1.947c-.404 0-.606-.202-.606-.606V76.922c0-.404.202-.606.606-.606h1.947c.403 0 .605.202.605.606v1.73h.173c.289-.634.837-1.182 1.644-1.644.808-.461 1.76-.692 2.856-.692h1.687c.375 0 .563.202.563.606v1.6c0 .203-.043.361-.13.477-.087.086-.231.115-.433.086h-2.336c-1.298 0-2.293.39-2.985 1.168-.693.78-1.039 1.846-1.039 3.202v14.321c0 .404-.202.606-.605.606Zm18.917-1.168h-2.423c-1.961 0-3.49-.563-4.586-1.688s-1.644-2.697-1.644-4.716v-8.09c0-2.02.562-3.591 1.687-4.716 1.154-1.125 2.726-1.688 4.716-1.688h9.389c.404 0 .606.202.606.606v21.46c0 1.99-.577 3.548-1.731 4.673-1.125 1.153-2.682 1.73-4.673 1.73h-7.96c-.433 0-.649-.202-.649-.606v-1.6c0-.404.216-.606.649-.606h7.571c2.423 0 3.634-1.24 3.634-3.721v-3.331h-.173c-.75 1.528-2.221 2.293-4.413 2.293Zm4.586-6.75v-10.99c0-.259-.144-.389-.432-.389h-6.014c-2.423 0-3.635 1.255-3.635 3.764v7.831c0 2.51 1.212 3.765 3.635 3.765h2.423c1.298 0 2.293-.346 2.985-1.039.692-.692 1.038-1.673 1.038-2.942Zm10.028 14.711h-1.904c-.404 0-.605-.202-.605-.606v-1.601c0-.404.201-.606.605-.606h1.082c1.846 0 3.144-.519 3.894-1.557.606-.837 1.154-2.034 1.644-3.591h-1.255c-.346 0-.591-.202-.735-.606l-6.36-19.686c-.116-.404.029-.606.432-.606h2.077c.375 0 .62.202.736.606l5.581 17.826h.173l5.581-17.826c.087-.404.318-.606.693-.606h1.99c.49 0 .663.216.519.65l-6.447 20.55c-.721 2.452-1.644 4.342-2.769 5.668-1.096 1.327-2.74 1.991-4.932 1.991Z" fill="#fff"></path><path d="M92.909 37.75c-1.513-1.302-3.855-.227-3.855 1.768v48.226a2.333 2.333 0 0 1-2.333 2.333H36.845a2.333 2.333 0 0 0-2.333 2.333v4.89a2.333 2.333 0 0 0 2.333 2.333h59.431A2.333 2.333 0 0 0 98.61 97.3V43.727c0-.679-.296-1.324-.81-1.768l-4.89-4.209Z" fill="url(#svg1947142376_8760_a)"></path><path d="M10.387 48.117c0-.68.296-1.326.812-1.77l37-31.79a2.333 2.333 0 0 1 3.042.002l10.405 8.958c1.512 1.302 3.855.227 3.855-1.768v-6.442c0-.679-.296-1.324-.81-1.768L51.24 1.961a2.333 2.333 0 0 0-3.042-.002l-46.555 40a2.333 2.333 0 0 0-.813 1.77v53.57a2.333 2.333 0 0 0 2.333 2.333h4.89a2.333 2.333 0 0 0 2.333-2.333V48.117Z" fill="url(#svg1947142376_8760_b)"></path><path d="M69.842 70.014a2.333 2.333 0 0 1 2.333 2.334v8.212a2.333 2.333 0 0 0 2.333 2.332h4.89a2.333 2.333 0 0 0 2.332-2.332V13.108a2.333 2.333 0 0 0-2.333-2.333h-4.89a2.333 2.333 0 0 0-2.332 2.333v45.018a2.333 2.333 0 0 1-2.333 2.333H29.6a2.333 2.333 0 0 1-2.334-2.333V46.518c0-1.994-2.34-3.069-3.853-1.77l-4.89 4.202a2.333 2.333 0 0 0-.812 1.77v59.478a2.333 2.333 0 0 0 2.333 2.333h4.89a2.333 2.333 0 0 0 2.332-2.333v-37.85a2.333 2.333 0 0 1 2.334-2.334h40.242Zm2.075 51.462v-2.216c0-.886.38-1.641 1.143-2.263l4.292-3.639c.7-.576 1.05-1.198 1.05-1.867v-.7c0-.482-.116-.824-.35-1.026-.218-.218-.583-.327-1.096-.327h-.817c-.498 0-.847.109-1.05.327-.202.202-.303.544-.303 1.026v.747c0 .342-.163.513-.49.513h-1.983c-.326 0-.49-.171-.49-.513v-.793c0-1.213.335-2.147 1.003-2.8.67-.653 1.618-.98 2.847-.98h1.773c1.228 0 2.177.327 2.846.98s1.003 1.587 1.003 2.8v.933c0 1.213-.466 2.216-1.4 3.009l-4.386 3.733c-.186.171-.28.358-.28.56v.373h5.576c.327 0 .49.164.49.49v1.633c0 .327-.163.49-.49.49h-8.399c-.326 0-.49-.163-.49-.49Z" fill="#3EFF52"></path><defs><linearGradient id="svg1947142376_8760_a" x1="66.561" y1="34.432" x2="66.561" y2="99.633" gradientUnits="userSpaceOnUse"><stop stop-color="#47FF5A"></stop><stop offset="1" stop-color="#47FF5A" stop-opacity="0"></stop></linearGradient><linearGradient id="svg1947142376_8760_b" x1="33.166" y1=".651" x2="33.166" y2="99.632" gradientUnits="userSpaceOnUse"><stop stop-color="#47FF5A"></stop><stop offset="1" stop-color="#47FF5A" stop-opacity="0"></stop></linearGradient></defs></svg>