<svg xmlns="http://www.w3.org/2000/svg" xml:space="preserve" width="96" height="96" overflow="hidden"><path d="M26.39 77c-7.728-.009-13.991-6.272-14-14v-.65c.367-7.731 6.931-13.701 14.662-13.335 7.247.344 13.034 6.163 13.338 13.412V63c-.008 7.729-6.271 13.992-14 14Zm0-26c-6.406-.023-11.695 5.001-12 11.4v.6c0 6.627 5.373 12 12 12s12-5.373 12-12v-.542c-.227-6.443-5.553-11.529-12-11.458Z"/><path d="M26.39 69a6 6 0 1 1 6-6 5.937 5.937 0 0 1-6 6Zm0-10a4 4 0 1 0 4 4 3.957 3.957 0 0 0-3.913-4h-.087Zm16.047 4.922v3.031a1 1 0 0 0 2 0v-3.031c0-.339-.01-.637-.026-.922H65.1c.242-.693.547-1.363.911-2H42.279c.052.45.1.9.11 1.365ZM76.362 76.91A9.91 9.91 0 0 1 67.275 71a9.961 9.961 0 0 1 15.768-11.456A9.492 9.492 0 0 1 86.39 66.9c-.014 5.53-4.498 10.006-10.028 10.01Zm-.057-17.9a7.785 7.785 0 0 0-4.622 1.493 8.028 8.028 0 0 0-2.583 9.689A8 8 0 0 0 84.39 66.9a7.522 7.522 0 0 0-2.647-5.837l-.012-.01a8.254 8.254 0 0 0-5.426-2.039Z"/><path d="M76.39 71a4 4 0 1 1 4-4 3.957 3.957 0 0 1-3.913 4h-.087Zm0-6a2 2 0 1 0 2 2 1.98 1.98 0 0 0-1.958-2h-.042Zm4.901-23.8a4 4 0 0 0-2.9-1.2h-12.4V30a2 2 0 0 1 2-2v-2a4 4 0 0 0-4 4v10h-12.8l-8.2-16.7a5.71 5.71 0 0 0-5.153-3.3H24.491a6.018 6.018 0 0 0-6 6v14l-2.1 1.3a1.964 1.964 0 0 0-.9 1.7v5.734a18.67 18.67 0 0 0-3.23 2.856 1 1 0 0 0 1.459 1.367 22.078 22.078 0 0 1 1.771-1.717 15.641 15.641 0 0 1 2-1.531V42.97L19.06 42h59.331a2.006 2.006 0 0 1 1.485.614l.048.047.049.044c.353.337.542.812.518 1.3v11.742c.694.254 1.363.571 2 .945V44a3.63 3.63 0 0 0-1.2-2.8Zm-56.3-1.2h-4.5V26a4 4 0 0 1 4-4h13.347c1.372.01 2.626.78 3.255 2h-16.1Zm2 0V26h15.1l6.913 14Z"/></svg>