<svg xmlns="http://www.w3.org/2000/svg" xml:space="preserve" width="96" height="96" overflow="hidden"><path d="M32.1 36C24.9 42 21 47.5 19.8 50.4 13.1 66.6 22.9 82.3 30 86.2l2.6 1.4-1.2-2.7C28.8 79 26 67.8 34.9 56.7c-.5 4.7-.5 12.9 4.8 19.3 7 8.6 7.1 15 7.1 15.1v1h1c12.2 0 23.3-7.4 27.9-18.7 3.5-6.8 4.1-17.8-1-24.6l-2.9-3.9 1.2 4.7c.7 3.3-.4 6.6-3 8.8-2.4 2.2-5.8 2.8-8.8 1.5-2.6-.9-4.6-2.9-5.4-5.4-.9-3-.3-6.2 1.6-8.6C61.7 40 63 32.3 61 24.6c-2.4-9.1-8.9-16.7-17.6-20.5L40.8 3l1.3 2.5c7.6 14.3-5.8 27-10 30.5ZM46 7.7c6.4 3.9 11.1 10.1 13 17.4 1.9 7.1.7 14.2-3.4 19.6-2.2 3-2.9 6.8-1.8 10.4 1 3.1 3.5 5.6 6.6 6.7 3.7 1.5 7.9.8 10.8-1.9 2-1.7 3.3-4 3.7-6.5 2.4 6 1.5 14-1.1 19.1-4.2 10.3-14 17.2-25.1 17.6-.3-2.3-1.5-8.1-7.5-15.3-6.9-8.4-3.9-20.6-3.8-21.1l.9-3.6-2.6 2.7C24.8 64.1 26.2 76 28.3 82.7c-6-5.4-12.2-18.2-6.8-31.4 1.2-2.9 5.3-8.3 11.7-13.6C42 30.4 49.3 18.9 44.9 7.3c.2-.2.8.2 1.1.4Z"/></svg>