<svg xmlns="http://www.w3.org/2000/svg" xml:space="preserve" width="96" height="96" overflow="hidden"><path d="M84.9 46.282C83.505 27.456 68.536 12.49 49.71 11.1A37.665 37.665 0 0 0 21.1 21.215C5.749 35.501 4.885 59.527 19.172 74.878a37.966 37.966 0 0 0 8.354 6.748c5.857 3.499 13.442 1.588 16.941-4.269a12.354 12.354 0 0 0 1.749-6.338c0-3.93.144-5.924.856-7.806a13.646 13.646 0 0 0 11.078-7.022c5.961-10.413 1.5-20.252-4.763-30.527 0 0-8.085 8.616-14.354 12.182-6.463 3.935-8.512 12.363-4.577 18.826l.003.006a13.558 13.558 0 0 0 4.141 4.266 75.35 75.35 0 0 1 5.968-16.6 1.25 1.25 0 0 1 2.2 1.188c-.019.035-.862 1.618-1.994 4.392a88.847 88.847 0 0 0-3.853 13.526c0 .012-.141.789-.2 1.156a25.09 25.09 0 0 0-.365 4.554c0 4.338-1.341 6.242-3.361 7.387a6.265 6.265 0 0 1-6.381-.073c-15.169-9.035-20.142-28.656-11.107-43.826A32.015 32.015 0 0 1 25.2 25.6a31.73 31.73 0 0 1 24.1-8.521c17.61 1.246 30.875 16.532 29.629 34.142a31.98 31.98 0 0 1-2.515 10.358 11.346 11.346 0 0 0-13.784 1.746l-5.36 5.352 2.676 2.676-4.281 4.281a2.271 2.271 0 0 0 3.211 3.211l4.281-4.281 4.281 4.281-4.281 4.281a2.27 2.27 0 1 0 3.21 3.211l4.282-4.281 2.675 2.676 5.352-5.352a11.347 11.347 0 0 0 2.136-13.068 37.993 37.993 0 0 0 4.088-20.03Z"/></svg>