<svg xmlns="http://www.w3.org/2000/svg" width="242" height="74" fill="none"><path fill="#FF5400" d="M10.086 24.699c0-2.69 2.887-4.14 5.217-3.932 2.814.25 6.078 1.353 8.224 3.721l3.037-7.045c-3.04-2.69-6.945-3.756-11.004-3.756-7.046 0-13.692 4.01-13.692 11.673 0 11.98 16.836 8.426 16.836 15.024 0 2.54-2.89 3.755-5.477 3.755s-7.82-2.125-9.443-4.26l-3.02 6.993c3.397 3.147 7.393 4.58 12.009 4.58 7.403 0 13.845-3.808 13.845-11.826 0-12.588-16.532-8.376-16.532-14.924V24.7ZM108.4 43.245H94.788V14.617h-7.91v35.938H108.4v-7.31Zm-40.621 1.052H30.082l3.03 6.257h31.63l3.037-6.257ZM52.862 5.441h-7.87L30.084 40.063h37.68L52.862 5.44Zm-3.935 9.168 8.177 18.969H40.756l8.167-18.97h.004Zm15.815-4.261c2.706 0 4.9-2.199 4.9-4.905a4.903 4.903 0 0 0-4.9-4.904 4.901 4.901 0 0 0-4.9 4.904 4.901 4.901 0 0 0 4.9 4.905Zm15.623 4.269h-8.02v35.938h8.02V14.617Zm49.814 7.87c.894-.996 2.052-1.497 3.471-1.497 1.418 0 2.433.398 3.244 1.19.808.794 1.215 1.83 1.215 3.113 0 1.08-.27 2.058-.811 2.937-.541.878-1.252 1.737-2.129 2.582l-13.986 12.655v7.09h25.941v-7.404h-14.642l8.311-7.407a72.408 72.408 0 0 0 2.356-2.258 16.683 16.683 0 0 0 2.026-2.459 11.618 11.618 0 0 0 1.395-2.866c.337-1.032.504-2.189.504-3.475 0-1.86-.363-3.484-1.088-4.87a10.088 10.088 0 0 0-2.914-3.448 12.517 12.517 0 0 0-4.155-2.028 17.545 17.545 0 0 0-4.813-.658 15.59 15.59 0 0 0-4.99.791 13.039 13.039 0 0 0-4.179 2.299 12.55 12.55 0 0 0-3.014 3.645c-.794 1.426-1.292 3.053-1.495 4.877l8.157 1.116c.167-1.623.701-2.933 1.596-3.932v.007Zm48.778 2.766c-.508-2.278-1.316-4.27-2.43-5.973a12.529 12.529 0 0 0-4.326-4.076c-1.769-1.012-3.919-1.517-6.449-1.517s-4.686.508-6.472 1.517a12.638 12.638 0 0 0-4.375 4.076c-1.132 1.704-1.946 3.695-2.454 5.973-.507 2.279-.761 4.681-.761 7.213 0 2.533.254 4.945.761 7.24.504 2.295 1.322 4.313 2.454 6.05a12.701 12.701 0 0 0 4.375 4.153c1.786 1.029 3.946 1.543 6.472 1.543 2.527 0 4.677-.514 6.449-1.543a12.586 12.586 0 0 0 4.326-4.153c1.114-1.737 1.922-3.755 2.43-6.05.504-2.295.757-4.707.757-7.24 0-2.532-.253-4.934-.757-7.213Zm-8.145 10.985c-.136 1.367-.387 2.633-.757 3.795-.374 1.163-.905 2.142-1.592 2.937-.691.795-1.592 1.19-2.707 1.19-1.115 0-2.023-.398-2.731-1.19-.707-.792-1.255-1.77-1.645-2.937a17.345 17.345 0 0 1-.784-3.795 38.846 38.846 0 0 1-.201-3.772c0-1.149.067-2.345.201-3.695.133-1.35.397-2.609.784-3.771.387-1.163.934-2.142 1.645-2.937.708-.792 1.619-1.19 2.731-1.19 1.111 0 2.016.398 2.707 1.19.691.792 1.221 1.77 1.592 2.937.37 1.166.621 2.422.757 3.771.134 1.35.204 2.58.204 3.695 0 1.116-.07 2.406-.204 3.772Zm32.974-.492a72.408 72.408 0 0 0 2.356-2.258 16.62 16.62 0 0 0 2.026-2.459 11.656 11.656 0 0 0 1.396-2.866c.337-1.032.504-2.189.504-3.475 0-1.86-.364-3.484-1.089-4.87a10.096 10.096 0 0 0-2.913-3.448 12.532 12.532 0 0 0-4.156-2.028 17.54 17.54 0 0 0-4.813-.658 15.59 15.59 0 0 0-4.99.791 13.039 13.039 0 0 0-4.179 2.299 12.55 12.55 0 0 0-3.014 3.645c-.794 1.426-1.291 3.053-1.495 4.877l8.157 1.116c.167-1.623.701-2.933 1.596-3.932.894-.995 2.053-1.497 3.471-1.497 1.419 0 2.433.398 3.244 1.19.808.795 1.215 1.83 1.215 3.113 0 1.08-.27 2.058-.811 2.937-.54.879-1.251 1.737-2.129 2.582l-13.985 12.656v7.089h25.941v-7.403h-14.643l8.311-7.407v.006Zm23.928-13.811h13.521l-2.526-3.461 2.526-3.826H217.46l-.857 20.503c1.285-.47 2.74-.848 4.379-1.139 1.632-.287 3.094-.431 4.372-.431.875 0 1.756.087 2.63.254a7.04 7.04 0 0 1 2.357.885 5.1 5.1 0 0 1 1.692 1.694c.441.708.658 1.59.658 2.63 0 1.723-.531 3.02-1.593 3.901-1.061.876-2.319 1.317-3.771 1.317s-2.64-.405-3.665-1.216a6.008 6.008 0 0 1-2.099-3.087l-7.741 2.378c.381 1.337.962 2.54 1.749 3.618.047.07.097.137.147.204a12.12 12.12 0 0 0 3.084 2.863c1.198.775 2.534 1.37 3.999 1.798a16.67 16.67 0 0 0 4.626.631 16.88 16.88 0 0 0 5.11-.785 13.474 13.474 0 0 0 4.423-2.352c1.298-1.046 2.336-2.372 3.114-3.975.774-1.604 1.161-3.502 1.161-5.697 0-1.887-.337-3.54-1.011-4.957-.678-1.417-1.592-2.61-2.754-3.572-1.168-.962-2.543-1.674-4.125-2.151-1.589-.471-3.271-.709-5.06-.709-.538 0-1.138.024-1.796.077a10.91 10.91 0 0 0-1.796.278l.491-9.134 2.53 3.46ZM5.834 60.121.764 73.274h4.542l.905-2.593h5.774a83.3 83.3 0 0 1 .925 2.593h4.686l-5.104-13.153H5.834Zm1.412 7.738a398.794 398.794 0 0 1 1.865-4.982l.434 1.176c.484 1.27.952 2.536 1.412 3.806H7.246Zm22.053-7.738-1.376 8.573-1.575-8.573h-6.155l-1.412 13.156h4.686l.274-9.314 1.846 9.314h4.743l1.809-9.387.29 9.387h4.686l-1.411-13.156h-6.405Zm22.696 5.88c-1.158-.584-3.017-.878-5.574-.878-1.038 0-1.832-.087-2.38-.264-.55-.174-.824-.408-.824-.698 0-.291.2-.512.597-.662.397-.15 1.168-.227 2.316-.227.952 0 2.05.167 3.295.498 1.242.334 2.173.745 2.787 1.239.047-.12.11-.3.18-.544a35.874 35.874 0 0 1 1.105-2.917c-1.062-.555-2.253-.992-3.575-1.313a16.363 16.363 0 0 0-3.865-.481c-2.16 0-3.915.387-5.267 1.16-1.352.774-2.026 1.974-2.026 3.604 0 1.146.554 1.978 1.666 2.492 1.111.515 2.897.769 5.357.769 2.243 0 3.367.367 3.367 1.105 0 .208-.206.398-.617.572-.41.177-1.115.264-2.116.264-1.001 0-2.033-.137-3.168-.418-1.135-.277-2.13-.665-2.987-1.16a15.749 15.749 0 0 1-.788 1.848c-.273.531-.61 1.106-1.021 1.72 1.111.569 2.36 1 3.748 1.297 1.389.294 2.75.444 4.092.444 2.497 0 4.363-.37 5.595-1.115 1.231-.745 1.845-1.962 1.845-3.652 0-1.21-.577-2.105-1.739-2.69l-.003.007Zm3.035-2.075c1.868-.06 3.704-.097 5.503-.11v9.458h4.526v-9.458c1.786.013 3.625.05 5.52.11v-3.805H55.03v3.805Zm21.233 4.149a174.201 174.201 0 0 1 8.525.09v-3.117a166.443 166.443 0 0 1-8.525.09v-1.74h9.793v-3.28H71.992c.097 2.341.144 4.536.144 6.577 0 2.042-.047 4.233-.144 6.578h14.066c0-.798.01-1.46.026-1.984.017-.525.07-1.036.154-1.53-2.063.11-5.387.177-9.974.2v-1.884Zm25.545-.905c.514-.724.771-1.613.771-2.662 0-1.34-.484-2.402-1.449-3.187-.964-.785-2.667-1.176-5.103-1.176h-3.712v-.02h-4.272c.097 2.342.143 4.537.143 6.578 0 2.041-.046 4.233-.143 6.578h4.272v-4.203h2.66c1.145 1.811 1.986 3.214 2.517 4.203h4.923l-2.934-4.076a4.37 4.37 0 0 0-.307-.454c1.242-.327 2.12-.852 2.634-1.577v-.003Zm-3.628-1.903c-.207.147-.571.25-1.095.317s-1.302.1-2.326.1h-2.444V63.62h2.444c1.038 0 1.822.03 2.353.09.53.06.894.163 1.088.307.193.144.29.35.29.615a.751.751 0 0 1-.307.635h-.003Zm17.274-4.52c-1.315-.548-3.107-.825-5.377-.825-2.426 0-4.356.06-5.791.18a151.7 151.7 0 0 1 .144 6.505c0 2.078-.047 4.27-.144 6.648 1.135.014 2.256.02 3.368.02h3.278c1.762 0 3.244-.274 4.452-.825 1.208-.548 2.113-1.326 2.717-2.329.604-1.002.905-2.174.905-3.514 0-1.413-.264-2.606-.788-3.578s-1.445-1.734-2.76-2.282h-.004Zm-1.775 8.108c-.374.545-1.122.815-2.247.815h-2.623v-6.033c.581-.074 1.455-.11 2.623-.11 1.085 0 1.826.284 2.217.852.39.567.587 1.31.587 2.228 0 .919-.187 1.704-.561 2.248h.004Zm10.428-8.734-5.07 13.153h4.543l.904-2.593h5.775c.387 1.04.694 1.901.924 2.593h4.686l-5.103-13.153h-6.659Zm1.412 7.738a395.06 395.06 0 0 1 1.866-4.982l.434 1.176c.484 1.27.951 2.536 1.412 3.806h-3.712Zm22.052-7.738-1.379 8.573-1.572-8.573h-6.154l-1.412 13.156h4.686l.274-9.314 1.845 9.314h4.743l1.809-9.387.291 9.387h4.686l-1.412-13.156h-6.405Z"/></svg>